<?xml version="1.0" standalone="no"?>
<!DOCTYPE svg PUBLIC "-//W3C//DTD SVG 20010904//EN"
 "http://www.w3.org/TR/2001/REC-SVG-20010904/DTD/svg10.dtd">
<svg version="1.0" xmlns="http://www.w3.org/2000/svg"
 width="420.000000pt" height="500.000000pt" viewBox="0 0 420.000000 500.000000"
 preserveAspectRatio="xMidYMid meet">

<g transform="translate(0.000000,500.000000) scale(0.100000,-0.100000)"
fill="#000000" stroke="none">
<path d="M1909 4984 c-99 -15 -278 -76 -296 -100 -7 -9 -24 -69 -39 -133 -57
-244 -204 -445 -390 -533 -83 -39 -194 -61 -274 -55 -85 7 -317 55 -352 73
-58 30 -81 20 -187 -75 -117 -107 -135 -127 -196 -225 -53 -86 -150 -303 -165
-372 -16 -68 -6 -95 58 -161 65 -67 153 -196 204 -298 71 -140 121 -333 144
-550 l16 -160 -26 -179 c-31 -211 -69 -336 -156 -511 -49 -100 -75 -137 -150
-220 -50 -55 -93 -111 -97 -124 -3 -14 -1 -41 4 -60 70 -238 88 -279 174 -401
67 -95 254 -288 296 -306 24 -11 39 -11 60 -3 61 23 293 70 387 79 204 18 452
-19 602 -89 205 -96 338 -228 464 -460 25 -47 58 -94 73 -105 l28 -21 36 20
c40 22 38 20 83 117 32 70 126 205 189 271 106 113 336 222 555 262 66 12 125
16 225 12 160 -5 408 -41 468 -67 69 -30 101 -15 211 98 143 147 244 310 316
510 44 124 36 151 -89 283 -107 114 -243 419 -282 633 -23 123 -22 405 1 541
21 128 57 261 97 366 36 94 193 337 241 372 35 26 58 66 58 103 0 41 -55 193
-106 295 -94 188 -201 322 -317 398 -69 45 -83 47 -142 25 -75 -27 -266 -64
-333 -64 -97 0 -234 25 -294 53 -193 89 -338 295 -393 561 -8 42 -21 86 -28
97 -16 26 -201 84 -332 104 -119 18 -229 18 -346 -1z m344 -154 c107 -10 171
-26 188 -46 6 -7 21 -57 34 -110 70 -279 253 -503 493 -600 117 -47 170 -56
309 -55 129 1 229 16 355 55 l48 14 97 -102 c54 -57 115 -132 136 -167 43 -74
94 -199 103 -255 5 -37 2 -43 -61 -114 -105 -120 -192 -282 -263 -497 -41
-120 -60 -219 -72 -362 -23 -279 40 -636 155 -888 47 -101 155 -279 205 -336
l42 -48 -11 -47 c-28 -112 -166 -340 -271 -449 -50 -52 -60 -52 -211 -18 -152
34 -348 49 -491 36 -208 -18 -462 -109 -639 -228 -89 -60 -201 -176 -249 -257
-19 -33 -39 -61 -45 -63 -5 -1 -28 25 -50 59 -130 202 -402 387 -651 442 -265
59 -427 60 -717 4 l-167 -32 -41 40 c-114 110 -222 272 -264 394 -36 105 -34
119 28 191 80 94 114 145 172 259 95 189 142 350 166 575 29 274 -26 638 -136
895 -47 110 -167 311 -218 367 -38 42 -40 45 -34 96 9 72 71 192 162 312 104
137 151 185 184 185 14 0 60 -11 101 -24 81 -26 219 -46 315 -46 33 0 102 11
153 25 185 49 331 136 428 253 59 72 155 249 174 322 44 170 48 179 90 190
145 39 273 47 453 30z"/>
<path d="M1949 4654 l-47 -14 -40 -102 c-62 -162 -63 -197 -7 -234 47 -30 71
-13 115 83 22 47 40 92 40 99 0 18 52 27 109 19 47 -6 49 -8 60 -48 6 -23 26
-67 44 -97 30 -50 37 -55 73 -58 29 -2 45 3 63 19 21 19 23 29 18 74 -6 60
-60 196 -91 231 -36 40 -242 58 -337 28z"/>
<path d="M1510 4029 c-66 -50 -211 -129 -237 -129 -29 0 -71 -30 -83 -60 -15
-37 -2 -76 36 -104 25 -18 29 -18 92 -2 91 22 198 86 293 175 71 65 80 77 74
100 -4 14 -16 36 -27 49 -34 35 -73 28 -148 -29z"/>
<path d="M2552 4063 c-78 -40 -48 -108 88 -204 118 -84 179 -116 252 -131 71
-15 103 2 114 59 11 58 -10 83 -91 113 -39 14 -117 58 -175 98 -58 39 -116 74
-130 76 -14 3 -40 -2 -58 -11z"/>
<path d="M495 3814 c-65 -77 -115 -173 -115 -221 0 -22 17 -57 55 -114 30 -45
55 -87 55 -94 0 -20 36 -46 74 -52 32 -5 42 -1 67 23 42 39 35 80 -25 171
l-47 71 32 52 c32 52 32 52 73 46 126 -20 153 -19 185 3 40 29 44 86 8 119
-26 25 -119 47 -233 58 l-71 6 -58 -68z"/>
<path d="M3550 3870 c-14 -4 -47 -8 -73 -9 -51 -1 -110 -21 -139 -48 -27 -24
-23 -79 7 -108 28 -29 86 -33 176 -14 52 11 53 11 76 -17 12 -16 28 -41 34
-57 11 -25 9 -31 -14 -55 -56 -58 -83 -165 -53 -204 21 -28 57 -37 87 -22 51
26 169 206 169 258 0 39 -79 183 -130 237 -48 51 -77 59 -140 39z"/>
<path d="M3398 3070 c-31 -24 -52 -84 -67 -195 -6 -44 -18 -102 -26 -129 -24
-78 -20 -111 18 -152 28 -31 37 -35 63 -30 56 13 62 24 83 162 11 71 30 153
41 182 38 99 19 168 -50 177 -25 4 -42 0 -62 -15z"/>
<path d="M703 3063 c-20 -13 -23 -24 -23 -77 0 -33 11 -101 24 -151 13 -49 27
-114 30 -144 9 -68 27 -104 61 -119 37 -17 59 -15 90 10 27 21 28 23 22 98
-10 131 -57 322 -93 378 -17 27 -76 30 -111 5z"/>
<path d="M760 2246 c-13 -22 -25 -64 -31 -107 -5 -39 -20 -112 -34 -162 -35
-130 -34 -165 9 -199 33 -26 37 -27 73 -15 35 11 40 17 61 82 26 80 62 277 62
338 -1 54 -26 85 -77 93 -38 6 -41 4 -63 -30z"/>
<path d="M3326 2259 c-23 -18 -26 -27 -26 -87 0 -37 11 -112 24 -167 13 -55
27 -121 30 -147 7 -48 41 -89 85 -103 29 -9 80 21 87 51 7 26 -22 203 -57 348
-28 119 -78 156 -143 105z"/>
<path d="M558 1513 c-9 -2 -44 -44 -77 -92 -33 -48 -66 -93 -75 -100 -47 -39
-15 -135 93 -278 71 -94 66 -93 218 -73 102 14 140 27 158 53 19 28 19 77 -1
105 -13 20 -24 22 -94 22 -43 0 -90 -4 -105 -10 -17 -7 -31 -6 -43 1 -22 14
-63 76 -64 97 -1 10 22 53 52 96 50 76 52 80 41 116 -6 21 -17 42 -24 47 -16
13 -57 21 -79 16z"/>
<path d="M3571 1491 c-17 -16 -31 -36 -31 -45 0 -31 40 -120 70 -158 l31 -39
-24 -42 c-48 -80 -43 -77 -123 -62 -81 16 -123 9 -161 -27 -29 -28 -29 -58 1
-91 32 -34 111 -57 222 -64 l91 -6 63 74 c64 74 104 146 115 209 5 29 1 45
-27 89 -95 152 -114 173 -170 185 -20 5 -33 -1 -57 -23z"/>
<path d="M2915 1158 c-27 -5 -99 -18 -160 -29 -138 -25 -186 -50 -199 -102
-12 -46 -3 -64 43 -91 31 -18 33 -18 90 3 32 12 107 28 167 36 60 8 123 19
141 25 33 12 63 48 63 75 0 32 -30 73 -61 84 -18 6 -32 10 -33 10 -1 -1 -23
-6 -51 -11z"/>
<path d="M1182 1127 c-36 -37 -41 -70 -14 -104 13 -17 34 -25 92 -33 41 -6
116 -21 165 -34 141 -37 168 -39 199 -15 32 25 36 85 8 119 -20 25 -235 84
-347 94 -70 7 -70 7 -103 -27z"/>
<path d="M2243 888 c-25 -5 -58 -24 -86 -48 -25 -22 -50 -40 -56 -40 -6 0 -36
20 -67 45 -43 36 -63 45 -93 45 -61 0 -97 -56 -75 -115 4 -9 30 -31 58 -49 28
-18 74 -54 102 -79 70 -63 90 -62 179 9 117 93 135 113 135 154 0 62 -36 91
-97 78z"/>
</g>
</svg>
